HIERARCHY
ROOT hip
{
  OFFSET 0.0 0.0 0.0
  CHANNELS 6 Xposition Yposition Zposition Zrotation Yrotation Xrotation
  JOINT torso
  {
    OFFSET 0.0 0.0 0.0
    CHANNELS 3 Zrotation Xrotation Yrotation
    JOINT neck
    {
      OFFSET -31.42098999999993 328.8025209999999 74.3554680000002
      CHANNELS 3 Zrotation Xrotation Yrotation
      JOINT head
      {
        OFFSET 3.3519900000001144 303.81732099999994 206.53942900000015
        CHANNELS 3 Zrotation Xrotation Yrotation
        End Site
        {
          OFFSET 0.0 0.0 0.0
        }
      }
    }
    JOINT left_collar
    {
      OFFSET -31.42098999999993 328.8025209999999 74.3554680000002
      CHANNELS 3 Zrotation Xrotation Yrotation
      JOINT left_upper_arm
      {
        OFFSET -124.490479 -8.162841999999841 8.226441000000023
        CHANNELS 3 Zrotation Xrotation Yrotation
        JOINT left_forearm
        {
          OFFSET -253.595764 -1.5758060000000569 105.0729980000001
          CHANNELS 3 Zrotation Xrotation Yrotation
          JOINT left_hand
          {
            OFFSET -269.48803699999996 0.1478270000000066 -55.346191999999974
            CHANNELS 3 Zrotation Xrotation Yrotation
            End Site
            {
              OFFSET 0.0 0.0 0.0
            }
          }
        }
      }
    }
    JOINT right_collar
    {
      OFFSET -31.42098999999993 328.8025209999999 74.3554680000002
      CHANNELS 3 Zrotation Xrotation Yrotation
      JOINT right_upper_arm
      {
        OFFSET 162.02484099999998 0.46441600000002836 2.2303470000001653
        CHANNELS 3 Zrotation Xrotation Yrotation
        JOINT right_forearm
        {
          OFFSET 240.01246700000004 -25.835875999999985 121.34179699999959
          CHANNELS 3 Zrotation Xrotation Yrotation
          JOINT right_hand
          {
            OFFSET 252.48539699999992 18.910399999999868 -67.53466800000001
            CHANNELS 3 Zrotation Xrotation Yrotation
            End Site
            {
              OFFSET 0.0 0.0 0.0
            }
          }
        }
      }
    }
  }
}
MOTION
Frames: 6
Frame Time: 0.01
-261.13805341067564 261.02220594807534 1444.718580764054 -0.5607256718468825 -16.98945035513548 9.394956592397048 4.007431534256251 3.485527844587425 -0.4561041435064716 1.5950083220838183 14.34361736590353 -1.1400637482540787 0.0 0.0 0.0 1.0912007841143152 0.2360672376414465 -2.177230391977918 -7.317484742891001 -11.247689610240505 -72.32653668129541 -2.082366423252061 0.4093064742139387 -0.9461868061427546 0.0 0.0 0.0 -5.133124496859874 -0.7085273754724789 -18.450526406720385 3.532823005892654 10.30334066950766 81.8185008675272 5.2231166384937895 1.3642577414083568 0.31031088469111034 0.0 0.0 0.0
-261.27046754572285 261.08550303970384 1444.6075606315812 -0.5349741536572246 -16.989016442672312 9.373353070811477 4.000291476417565 3.4833102993870715 -0.45497845579205215 1.579904361965519 14.337576546173189 -1.1308896282437542 0.0 0.0 0.0 1.085729790916451 0.23491295834548157 -2.168110997485118 -7.293105988144092 -11.203562828773332 -72.3062141703295 -2.101389598465876 0.4116751425352932 -1.016413572540034 0.0 0.0 0.0 -5.131255459445152 -0.7081974224909934 -18.44930704847643 3.5213232411000313 10.310973960781423 81.76460974411161 5.235969974984458 1.3570126925666304 0.3963297154420279 0.0 0.0 0.0
-261.4065138079695 261.1555921789264 1444.5109786786934 -0.5100177418646655 -16.989112361210747 9.35270760480484 3.993391846926375 3.483457922675585 -0.4535904172279351 1.5651176069426738 14.328514718256077 -1.1218930764382147 0.0 0.0 0.0 1.0805847540194267 0.23394049178963425 -2.161025271862997 -7.2668040908755875 -11.156417537874885 -72.28629401702915 -2.1181939857124177 0.4135776525754301 -1.0870628358595722 0.0 0.0 0.0 -5.129130541913962 -0.7078550297412635 -18.448683660137046 3.508450807900904 10.319992070100533 81.70563480731069 5.246975292989291 1.3485616293266116 0.48798064906383065 0.0 0.0 0.0
-261.54686429628754 261.2313448747343 1444.4301599586415 -0.4862028668412012 -16.99010952263831 9.332973602729922 3.9870270868361883 3.4861673980637162 -0.45197309159635823 1.550694888768108 14.316735498006421 -1.1131031380627519 0.0 0.0 0.0 1.075890894805982 0.23315649055011278 -2.1559244278095515 -7.239252658477195 -11.107357242107705 -72.2667923857489 -2.132512671595336 0.4149740831288841 -1.1577301728082876 0.0 0.0 0.0 -5.1267484459499855 -0.7075040056394006 -18.448750382304656 3.4945970494440504 10.329787361255203 81.64250783490508 5.256044140224792 1.339031953435224 0.5840806667790108 0.0 0.0 0.0
-261.6921967722004 261.3115206114104 1444.3663762978624 -0.4638603521606609 -16.992297972013983 9.314095266152618 3.981479838269739 3.4915763541582594 -0.45016487604823374 1.5366887320323595 14.30252357773313 -1.1045523669522617 0.0 0.0 0.0 1.071772357101783 0.23256653086507628 -2.152746188427388 -7.211116199837125 -11.057468468854013 -72.2477229339213 -2.144096606148797 0.4158285598332367 -1.2280275132397267 0.0 0.0 0.0 -5.124098907620721 -0.7071458596617335 -18.44957915553082 3.4801493802251717 10.339763206115755 81.57615285420688 5.263083036083993 1.3285493326550097 0.683458339202775 0.0 0.0 0.0
-261.84318448750633 261.39478924364556 1444.3208268270416 -0.4432994428847479 -16.99587678173383 9.296010143791529 3.977014590982163 3.499756535484561 -0.44820904928325944 1.5231576699134892 14.286138737472667 -1.0962769837489628 0.0 0.0 0.0 1.0683467990373896 0.2321748797084431 -2.151417527589464 -7.183035965981418 -11.007797562465454 -72.22909549187919 -2.1527198542752526 0.4161099883435464 -1.2975891901657848 0.0 0.0 0.0 -5.1211632755958645 -0.7067798775207292 -18.451219468463453 3.4654829682188013 10.34934784413245 81.50746796022389 5.267995546229442 1.3172346168516331 0.784981520308886 0.0 0.0 0.0
